Coordinates
version=1
nRows=54
nColumns=12
inDegrees=yes

Units are S.I. units (second, meters, Newtons, ...)
Angles are in degrees

endheader
time	SC_y	SC_z	SC_x	AC_y	AC_z	AC_x	GH_y	GH_z	GH_yy	EL_x	PS_y
       0.0              -18.78         0.6302          0.311           31.1        -0.3265          14.02          79.92          78.02          45.45          52.07          101.8
    0.0164              -18.78         0.6352         0.3218           31.1        -0.3283          14.03           79.9          78.01          45.42          52.07          101.8
   0.03279              -18.79         0.6404         0.3333          31.11        -0.3302          14.03          79.87          77.99          45.38          52.07          101.8
   0.04919               -18.8         0.6461         0.3456          31.11        -0.3322          14.03          79.84          77.98          45.35          52.07          101.8
   0.06559               -18.8          0.652         0.3586          31.11        -0.3344          14.03          79.81          77.96          45.31          52.07          101.8
   0.08199              -18.81         0.6584         0.3725          31.11        -0.3367          14.03          79.78          77.94          45.27          52.07          101.8
   0.09838              -18.82         0.6652         0.3874          31.11        -0.3392          14.03          79.75          77.92          45.22          52.07          101.9
    0.1148              -18.83         0.6725         0.4032          31.11        -0.3418          14.03          79.72           77.9          45.17          52.07          101.9
    0.1312              -18.83         0.6803         0.4202          31.12        -0.3446          14.03          79.68          77.88          45.12          52.07          101.9
    0.1476              -18.84         0.6887         0.4385          31.12        -0.3476          14.03          79.64          77.86          45.07          52.07          101.9
     0.164              -18.85         0.6977         0.4581          31.12        -0.3509          14.03          79.59          77.84          45.01          52.07          101.9
    0.1804              -18.87         0.7073         0.4791          31.13        -0.3544          14.03          79.55          77.81          44.95          52.07          101.9
    0.1968              -18.88         0.7178         0.5018          31.13        -0.3581          14.04           79.5          77.78          44.88          52.07          101.9
    0.2132              -18.89          0.729         0.5264          31.13        -0.3622          14.04          79.44          77.75           44.8          52.06          102.0
    0.2296               -18.9         0.7412         0.5529          31.14        -0.3666          14.04          79.38          77.71          44.73          52.06          102.0
     0.246              -18.92         0.7544         0.5817          31.14        -0.3714          14.04          79.32          77.68          44.64          52.06          102.0
    0.2624              -18.94         0.7688          0.613          31.14        -0.3766          14.04          79.25          77.64          44.55          52.06          102.0
    0.2788              -18.95         0.7844         0.6471          31.15        -0.3822          14.04          79.17           77.6          44.44          52.06          102.0
    0.2952              -18.97         0.8015         0.6844          31.15        -0.3884          14.05          79.09          77.55          44.33          52.06          102.1
    0.3115              -18.99         0.8202         0.7252          31.16        -0.3952          14.05           79.0           77.5          44.21          52.05          102.1
    0.3279              -19.02         0.8408         0.7699          31.17        -0.4026          14.05           78.9          77.44          44.08          52.05          102.1
    0.3443              -19.04         0.8634         0.8192          31.17        -0.4108          14.06          78.79          77.38          43.93          52.05          102.2
    0.3607              -19.07         0.8884         0.8736          31.18        -0.4198          14.06          78.67          77.31          43.77          52.05          102.2
    0.3771               -19.1          0.916         0.9339          31.19        -0.4298          14.06          78.54          77.23          43.59          52.04          102.3
    0.3935              -19.14         0.9468          1.001           31.2        -0.4409          14.07          78.39          77.15          43.39          52.04          102.3
    0.4099              -19.18         0.9811          1.076          31.21        -0.4533          14.07          78.22          77.05          43.16          52.04          102.4
    0.4263              -19.22           1.02          1.159          31.22        -0.4672          14.08          78.03          76.94          42.91          52.03          102.4
    0.4427              -19.27          1.063          1.254          31.23        -0.4828          14.08          77.82          76.82          42.63          52.03          102.5
    0.4591              -19.33          1.112           1.36          31.25        -0.5005          14.09          77.59          76.69          42.31          52.02          102.6
    0.4755              -19.39          1.167          1.481          31.27        -0.5206           14.1          77.32          76.54          41.95          52.02          102.7
    0.4919              -19.46           1.23          1.619          31.28        -0.5435           14.1          77.01          76.36          41.54          52.01          102.8
    0.5083              -19.54          1.303          1.778          31.31        -0.5697          14.11          76.66          76.16          41.06           52.0          102.9
    0.5247              -19.64          1.387           1.96          31.33           -0.6          14.12          76.25          75.93          40.51           52.0          103.0
    0.5411              -19.75          1.485          2.173          31.36        -0.6353          14.14          75.78          75.66          39.88          51.99          103.2
    0.5575              -19.88          1.599          2.422           31.4        -0.6765          14.15          75.23          75.34          39.13          51.97          103.3
    0.5739              -20.03          1.733          2.715          31.44        -0.7251          14.17          74.58          74.97          38.26          51.96          103.6
    0.5903              -20.22          1.893          3.063          31.49        -0.7829          14.19           73.8          74.53          37.22          51.94          103.8
    0.6067              -20.43          2.085           3.48          31.54        -0.8521          14.22          72.87           74.0          35.97          51.92          104.1
    0.6231               -20.7          2.316          3.985          31.61        -0.9359          14.25          71.75          73.36          34.45           51.9          104.5
    0.6395              -21.02          2.599          4.602           31.7         -1.038          14.28          70.38          72.57          32.61          51.87          104.9
    0.6559              -21.42          2.949          5.364          31.81         -1.165          14.33          68.68          71.61          30.33          51.83          105.5
    0.6723              -21.92          3.385          6.314          31.94         -1.322          14.39          66.57           70.4          27.49          51.79          106.2
    0.6887              -22.54          3.934           7.51          32.11          -1.52          14.46          63.91          68.88          23.91          51.73          107.0
    0.7051              -23.34          4.631           9.03          32.32         -1.773          14.55          60.53          66.95          19.36          51.66          108.2
    0.7215              -24.36          5.525          10.98          32.59         -2.095          14.67           56.2          64.48          13.54          51.56          109.6
    0.7379              -25.66          6.671          13.47          32.94          -2.51          14.82          50.65          61.31          6.062          51.44          111.4
    0.7543              -27.33          8.135          16.67          33.38         -3.039          15.01          43.55          57.26         -3.485          51.29          113.7
    0.7707              -29.43          9.976          20.68          33.94         -3.704          15.25          34.63          52.16         -15.49           51.1          116.6
    0.7871              -31.99          12.22          25.57          34.62         -4.515          15.55          23.76          45.95         -30.12          50.87          120.2
    0.8035              -34.95          14.82          31.23          35.41         -5.455          15.89          11.15          38.76         -47.07           50.6          124.3
    0.8199              -38.16          17.64          37.37          36.27         -6.472          16.26         -2.493          30.97         -65.43           50.3          128.8
    0.8363              -41.37          20.45           43.5          37.12          -7.49          16.63         -16.14          23.18         -83.79          50.01          133.3
    0.8527              -44.33          23.05          49.17          37.91          -8.43          16.97         -28.74          15.98         -100.7          49.74          137.4
    0.8691              -46.89          25.29          54.06           38.6         -9.241          17.27         -39.61          9.774         -115.4           49.5          141.0
